<svg xmlns="http://www.w3.org/2000/svg" xmlns:xlink="http://www.w3.org/1999/xlink" width="50" zoomAndPan="magnify" viewBox="0 0 37.5 37.499999" height="50" preserveAspectRatio="xMidYMid meet" version="1.2"><defs><clipPath id="7d50e149fc"><path d="M 0 0 L 37.007812 0 L 37.007812 37.007812 L 0 37.007812 Z M 0 0 "/></clipPath><clipPath id="3a6fbe427b"><path d="M 13 3.699219 L 23.980469 3.699219 L 23.980469 33.304688 L 13 33.304688 Z M 13 3.699219 "/></clipPath><clipPath id="bf7621dc2d"><path d="M 5 14 L 32.210938 14 L 32.210938 25 L 5 25 Z M 5 14 "/></clipPath><clipPath id="d61722dc06"><path d="M 14 13.609375 L 19 13.609375 L 19 18 L 14 18 Z M 14 13.609375 "/></clipPath><clipPath id="128534b090"><path d="M 27 21 L 32 21 L 32 26.191406 L 27 26.191406 Z M 27 21 "/></clipPath></defs><g id="f93c0745f9"><g clip-rule="nonzero" clip-path="url(#7d50e149fc)"><path style=" stroke:none;fill-rule:nonzero;fill:#ffffff;fill-opacity:1;" d="M 0 0 L 37.007812 0 L 37.007812 37.007812 L 0 37.007812 Z M 0 0 "/><path style=" stroke:none;fill-rule:nonzero;fill:#ffffff;fill-opacity:1;" d="M 0 0 L 37.007812 0 L 37.007812 37.007812 L 0 37.007812 Z M 0 0 "/></g><g clip-rule="nonzero" clip-path="url(#3a6fbe427b)"><path style=" stroke:none;fill-rule:nonzero;fill:#68a691;fill-opacity:1;" d="M 19.039062 15.828125 C 19.496094 15.164062 19.960938 14.503906 20.40625 13.832031 C 20.851562 13.160156 21.285156 12.484375 21.671875 11.785156 C 22.0625 11.085938 22.414062 10.367188 22.703125 9.628906 L 22.757812 9.492188 L 22.808594 9.351562 L 22.90625 9.070312 C 22.914062 9.046875 22.925781 9.023438 22.929688 9 L 22.953125 8.929688 L 22.996094 8.789062 L 23.085938 8.503906 C 23.195312 8.128906 23.28125 7.746094 23.328125 7.367188 C 23.375 6.984375 23.375 6.605469 23.316406 6.242188 L 23.304688 6.175781 C 23.300781 6.152344 23.296875 6.128906 23.289062 6.105469 C 23.28125 6.0625 23.273438 6.015625 23.261719 5.972656 C 23.238281 5.886719 23.210938 5.800781 23.175781 5.71875 C 23.113281 5.550781 23.03125 5.390625 22.933594 5.238281 C 22.738281 4.941406 22.476562 4.691406 22.175781 4.539062 C 22.023438 4.460938 21.867188 4.410156 21.703125 4.382812 C 21.535156 4.359375 21.367188 4.363281 21.199219 4.390625 C 20.863281 4.445312 20.535156 4.597656 20.246094 4.8125 C 20.175781 4.863281 20.105469 4.921875 20.039062 4.980469 C 19.972656 5.042969 19.90625 5.105469 19.847656 5.171875 L 19.800781 5.222656 L 19.757812 5.273438 C 19.730469 5.308594 19.699219 5.34375 19.671875 5.378906 L 19.632812 5.433594 C 19.617188 5.453125 19.605469 5.472656 19.589844 5.492188 C 19.566406 5.53125 19.539062 5.566406 19.511719 5.605469 C 19.3125 5.917969 19.148438 6.265625 19.007812 6.625 C 18.867188 6.988281 18.75 7.367188 18.628906 7.753906 L 18.121094 9.382812 L 18.003906 7.6875 C 17.984375 7.390625 17.9375 7.101562 17.859375 6.816406 C 17.785156 6.539062 17.667969 6.273438 17.515625 6.03125 C 17.367188 5.789062 17.175781 5.585938 16.945312 5.417969 C 16.722656 5.253906 16.464844 5.140625 16.195312 5.097656 C 15.925781 5.054688 15.644531 5.085938 15.375 5.179688 L 15.324219 5.199219 C 15.308594 5.203125 15.292969 5.210938 15.273438 5.21875 C 15.242188 5.230469 15.210938 5.246094 15.175781 5.261719 C 15.113281 5.292969 15.046875 5.324219 14.984375 5.363281 C 14.859375 5.4375 14.738281 5.519531 14.625 5.613281 C 14.511719 5.710938 14.40625 5.8125 14.304688 5.925781 C 14.207031 6.035156 14.113281 6.152344 14.03125 6.277344 C 13.863281 6.53125 13.722656 6.800781 13.613281 7.085938 C 13.597656 7.121094 13.585938 7.15625 13.574219 7.191406 C 13.5625 7.230469 13.546875 7.265625 13.535156 7.300781 L 13.503906 7.410156 C 13.496094 7.429688 13.492188 7.449219 13.484375 7.464844 L 13.46875 7.519531 L 13.414062 7.746094 L 13.390625 7.855469 L 13.371094 7.96875 C 13.347656 8.121094 13.328125 8.273438 13.316406 8.429688 C 13.308594 8.503906 13.304688 8.582031 13.300781 8.660156 C 13.300781 8.699219 13.300781 8.738281 13.300781 8.777344 C 13.300781 8.8125 13.296875 8.851562 13.300781 8.890625 C 13.304688 9.511719 13.40625 10.132812 13.582031 10.726562 L 13.617188 10.839844 C 13.628906 10.878906 13.640625 10.914062 13.652344 10.949219 C 13.664062 10.988281 13.679688 11.023438 13.691406 11.0625 L 13.730469 11.171875 C 13.742188 11.207031 13.757812 11.246094 13.773438 11.28125 L 13.8125 11.390625 L 13.859375 11.5 C 13.875 11.535156 13.890625 11.570312 13.90625 11.605469 L 13.953125 11.710938 C 13.96875 11.75 13.984375 11.78125 14.003906 11.816406 C 14.035156 11.890625 14.070312 11.957031 14.105469 12.027344 C 14.144531 12.097656 14.175781 12.167969 14.214844 12.238281 L 14.328125 12.441406 L 14.386719 12.542969 L 14.449219 12.644531 L 14.570312 12.84375 L 14.695312 13.042969 L 14.761719 13.140625 C 14.78125 13.171875 14.804688 13.207031 14.828125 13.238281 L 14.960938 13.433594 C 15.003906 13.496094 15.050781 13.558594 15.097656 13.621094 C 15.144531 13.6875 15.191406 13.75 15.238281 13.8125 L 15.378906 14 C 15.765625 14.5 16.175781 14.976562 16.589844 15.453125 L 17.214844 16.167969 C 17.425781 16.40625 17.632812 16.644531 17.835938 16.886719 C 18.660156 17.859375 19.429688 18.875 20.125 19.949219 C 20.820312 21.023438 21.429688 22.15625 21.90625 23.355469 L 21.992188 23.582031 L 22.039062 23.691406 L 22.058594 23.75 L 22.078125 23.804688 L 22.160156 24.035156 L 22.199219 24.148438 L 22.238281 24.265625 L 22.3125 24.496094 C 22.324219 24.53125 22.335938 24.570312 22.347656 24.609375 L 22.382812 24.726562 L 22.449219 24.960938 L 22.511719 25.195312 C 22.675781 25.824219 22.796875 26.460938 22.871094 27.105469 C 22.886719 27.265625 22.90625 27.429688 22.917969 27.589844 L 22.933594 27.832031 C 22.9375 27.914062 22.941406 27.996094 22.941406 28.078125 L 22.949219 28.199219 C 22.949219 28.238281 22.953125 28.28125 22.953125 28.320312 L 22.953125 28.566406 C 22.957031 28.726562 22.949219 28.890625 22.945312 29.054688 C 22.9375 29.21875 22.925781 29.386719 22.90625 29.550781 C 22.890625 29.714844 22.867188 29.882812 22.835938 30.046875 C 22.824219 30.128906 22.804688 30.214844 22.789062 30.296875 C 22.769531 30.378906 22.75 30.460938 22.726562 30.542969 C 22.679688 30.710938 22.628906 30.871094 22.5625 31.03125 C 22.550781 31.074219 22.53125 31.113281 22.515625 31.152344 C 22.5 31.191406 22.480469 31.230469 22.460938 31.269531 L 22.40625 31.390625 L 22.34375 31.507812 C 22.257812 31.660156 22.164062 31.808594 22.0625 31.949219 C 21.953125 32.09375 21.839844 32.226562 21.714844 32.355469 C 21.585938 32.480469 21.449219 32.597656 21.300781 32.703125 C 21.007812 32.910156 20.667969 33.074219 20.304688 33.15625 C 19.941406 33.238281 19.574219 33.246094 19.207031 33.183594 C 18.847656 33.121094 18.511719 33.003906 18.191406 32.828125 C 17.878906 32.664062 17.597656 32.457031 17.339844 32.210938 C 17.082031 31.96875 16.863281 31.699219 16.675781 31.398438 C 16.585938 31.25 16.503906 31.09375 16.433594 30.933594 L 16.378906 30.816406 L 16.335938 30.695312 L 16.289062 30.574219 L 16.277344 30.542969 C 16.273438 30.535156 16.269531 30.523438 16.265625 30.511719 L 16.246094 30.453125 C 16.140625 30.128906 16.066406 29.796875 16.019531 29.460938 C 15.972656 29.128906 15.949219 28.796875 15.949219 28.464844 C 15.941406 27.804688 16.011719 27.15625 16.101562 26.519531 L 16.136719 26.28125 C 16.152344 26.199219 16.160156 26.121094 16.175781 26.042969 L 16.21875 25.804688 L 16.238281 25.683594 L 16.308594 25.332031 L 16.332031 25.210938 L 16.355469 25.09375 L 16.40625 24.859375 L 16.433594 24.742188 C 16.441406 24.703125 16.449219 24.664062 16.460938 24.625 C 16.5 24.46875 16.535156 24.3125 16.578125 24.15625 C 16.617188 24 16.660156 23.847656 16.703125 23.691406 C 16.746094 23.535156 16.792969 23.382812 16.839844 23.230469 C 16.882812 23.074219 16.933594 22.921875 16.984375 22.769531 C 17.386719 21.546875 17.902344 20.375 18.53125 19.25 C 19.160156 18.132812 19.910156 17.082031 20.769531 16.136719 C 21.632812 15.195312 22.609375 14.355469 23.683594 13.679688 L 23.726562 13.738281 C 23.21875 14.117188 22.742188 14.527344 22.285156 14.964844 C 21.835938 15.402344 21.410156 15.863281 21.011719 16.347656 C 20.222656 17.320312 19.542969 18.378906 18.976562 19.488281 C 18.40625 20.601562 17.949219 21.769531 17.589844 22.960938 C 17.546875 23.113281 17.503906 23.261719 17.460938 23.410156 C 17.417969 23.5625 17.382812 23.710938 17.34375 23.863281 C 17.304688 24.015625 17.269531 24.167969 17.234375 24.316406 C 17.195312 24.46875 17.164062 24.621094 17.132812 24.773438 C 17.125 24.8125 17.117188 24.851562 17.109375 24.886719 L 17.085938 25.003906 L 17.042969 25.230469 C 17.011719 25.386719 16.988281 25.539062 16.960938 25.691406 L 16.949219 25.75 L 16.941406 25.804688 L 16.925781 25.921875 L 16.890625 26.152344 C 16.875 26.230469 16.867188 26.308594 16.859375 26.382812 L 16.828125 26.617188 C 16.789062 26.925781 16.757812 27.230469 16.738281 27.539062 C 16.714844 27.84375 16.707031 28.152344 16.714844 28.453125 C 16.722656 28.75 16.746094 29.050781 16.792969 29.347656 C 16.835938 29.636719 16.902344 29.921875 17 30.199219 L 17.015625 30.25 C 17.019531 30.257812 17.019531 30.269531 17.023438 30.277344 L 17.035156 30.300781 L 17.113281 30.503906 L 17.160156 30.601562 C 17.214844 30.730469 17.28125 30.855469 17.355469 30.976562 C 17.507812 31.214844 17.6875 31.433594 17.894531 31.625 C 18.097656 31.820312 18.324219 31.984375 18.574219 32.117188 C 18.695312 32.183594 18.820312 32.238281 18.949219 32.285156 C 19.078125 32.332031 19.210938 32.367188 19.34375 32.390625 C 19.605469 32.4375 19.867188 32.433594 20.128906 32.378906 C 20.390625 32.316406 20.628906 32.210938 20.847656 32.058594 C 20.960938 31.976562 21.066406 31.890625 21.164062 31.796875 C 21.261719 31.699219 21.355469 31.59375 21.441406 31.484375 L 21.5 31.398438 C 21.523438 31.371094 21.539062 31.339844 21.5625 31.3125 C 21.570312 31.296875 21.582031 31.28125 21.589844 31.265625 L 21.617188 31.222656 L 21.644531 31.175781 L 21.660156 31.15625 L 21.671875 31.132812 L 21.722656 31.039062 L 21.769531 30.945312 C 21.785156 30.914062 21.800781 30.878906 21.8125 30.847656 C 21.828125 30.8125 21.84375 30.78125 21.855469 30.746094 C 21.910156 30.613281 21.957031 30.476562 22 30.335938 C 22.019531 30.269531 22.035156 30.195312 22.054688 30.125 C 22.074219 30.054688 22.089844 29.984375 22.101562 29.910156 C 22.15625 29.613281 22.195312 29.316406 22.210938 29.015625 C 22.21875 28.867188 22.230469 28.710938 22.230469 28.558594 L 22.230469 28.328125 C 22.230469 28.289062 22.230469 28.253906 22.230469 28.214844 L 22.226562 28.097656 C 22.226562 28.023438 22.226562 27.945312 22.222656 27.867188 L 22.207031 27.636719 C 22.203125 27.484375 22.1875 27.332031 22.171875 27.179688 C 22.167969 27.140625 22.167969 27.101562 22.160156 27.0625 L 22.148438 26.949219 L 22.121094 26.71875 C 22.109375 26.644531 22.097656 26.566406 22.085938 26.492188 C 22.074219 26.417969 22.0625 26.339844 22.050781 26.261719 C 21.996094 25.960938 21.9375 25.65625 21.863281 25.355469 L 21.808594 25.132812 L 21.746094 24.90625 L 21.71875 24.796875 C 21.707031 24.757812 21.699219 24.722656 21.6875 24.683594 L 21.617188 24.460938 L 21.585938 24.351562 L 21.546875 24.238281 L 21.476562 24.019531 L 21.398438 23.800781 L 21.320312 23.578125 C 20.890625 22.414062 20.339844 21.289062 19.703125 20.210938 C 19.070312 19.128906 18.347656 18.09375 17.570312 17.105469 C 16.792969 16.113281 15.949219 15.167969 15.1875 14.148438 C 15.09375 14.019531 14.996094 13.890625 14.90625 13.761719 C 14.859375 13.695312 14.8125 13.632812 14.769531 13.566406 L 14.632812 13.367188 C 14.613281 13.332031 14.589844 13.300781 14.566406 13.269531 L 14.503906 13.167969 L 14.375 12.964844 L 14.253906 12.757812 L 14.191406 12.65625 L 14.132812 12.554688 L 14.015625 12.34375 C 13.976562 12.273438 13.941406 12.203125 13.90625 12.128906 C 13.871094 12.058594 13.832031 11.988281 13.796875 11.914062 C 13.78125 11.878906 13.765625 11.84375 13.746094 11.804688 L 13.699219 11.695312 C 13.570312 11.402344 13.457031 11.101562 13.363281 10.792969 C 13.171875 10.179688 13.054688 9.542969 13.035156 8.894531 C 13.023438 8.570312 13.039062 8.25 13.082031 7.925781 L 13.101562 7.804688 L 13.109375 7.746094 L 13.121094 7.683594 L 13.144531 7.566406 L 13.171875 7.445312 L 13.183594 7.386719 C 13.1875 7.367188 13.195312 7.347656 13.199219 7.328125 L 13.230469 7.207031 C 13.242188 7.167969 13.253906 7.128906 13.265625 7.089844 C 13.277344 7.050781 13.289062 7.011719 13.304688 6.972656 L 13.34375 6.859375 C 13.359375 6.820312 13.375 6.78125 13.390625 6.742188 C 13.417969 6.667969 13.453125 6.589844 13.488281 6.515625 C 13.503906 6.480469 13.523438 6.441406 13.542969 6.40625 C 13.558594 6.367188 13.578125 6.332031 13.597656 6.296875 C 13.636719 6.222656 13.675781 6.152344 13.71875 6.078125 C 13.808594 5.9375 13.902344 5.800781 14.007812 5.671875 C 14.117188 5.542969 14.230469 5.417969 14.355469 5.304688 C 14.480469 5.191406 14.613281 5.085938 14.757812 4.992188 C 14.828125 4.945312 14.902344 4.902344 14.976562 4.863281 C 15.015625 4.84375 15.054688 4.824219 15.09375 4.804688 C 15.113281 4.796875 15.132812 4.785156 15.152344 4.777344 L 15.214844 4.753906 C 15.292969 4.71875 15.378906 4.691406 15.460938 4.667969 C 15.546875 4.644531 15.632812 4.625 15.722656 4.613281 L 15.789062 4.605469 C 15.8125 4.601562 15.832031 4.597656 15.855469 4.597656 C 15.898438 4.59375 15.945312 4.589844 15.988281 4.589844 C 16.078125 4.585938 16.167969 4.589844 16.257812 4.601562 C 16.4375 4.621094 16.613281 4.664062 16.78125 4.726562 C 16.949219 4.792969 17.105469 4.871094 17.253906 4.972656 C 17.550781 5.167969 17.800781 5.414062 18.003906 5.710938 C 18.199219 5.996094 18.347656 6.308594 18.449219 6.640625 C 18.546875 6.964844 18.613281 7.296875 18.644531 7.636719 L 18.015625 7.570312 C 18.128906 7.179688 18.242188 6.785156 18.386719 6.394531 C 18.53125 6 18.710938 5.609375 18.945312 5.242188 C 18.976562 5.195312 19.007812 5.152344 19.039062 5.105469 C 19.054688 5.082031 19.070312 5.0625 19.085938 5.039062 L 19.136719 4.972656 C 19.167969 4.929688 19.203125 4.886719 19.238281 4.84375 L 19.292969 4.777344 L 19.347656 4.714844 C 19.5 4.550781 19.667969 4.402344 19.851562 4.269531 C 20.03125 4.136719 20.226562 4.023438 20.4375 3.933594 C 20.648438 3.839844 20.867188 3.773438 21.097656 3.738281 C 21.332031 3.699219 21.566406 3.699219 21.804688 3.738281 C 22.039062 3.777344 22.261719 3.851562 22.472656 3.964844 C 22.679688 4.074219 22.867188 4.210938 23.035156 4.371094 C 23.199219 4.53125 23.339844 4.707031 23.460938 4.902344 C 23.644531 5.1875 23.773438 5.496094 23.851562 5.828125 C 23.867188 5.882812 23.875 5.933594 23.886719 5.988281 C 23.890625 6.015625 23.898438 6.042969 23.902344 6.070312 L 23.914062 6.152344 C 23.976562 6.585938 23.960938 7.023438 23.898438 7.445312 C 23.832031 7.863281 23.726562 8.269531 23.601562 8.664062 L 23.5 8.957031 L 23.449219 9.101562 L 23.421875 9.175781 C 23.414062 9.199219 23.402344 9.222656 23.394531 9.246094 L 23.28125 9.535156 L 23.222656 9.675781 L 23.160156 9.816406 C 22.832031 10.570312 22.441406 11.292969 22.007812 11.984375 C 21.996094 12.003906 21.984375 12.027344 21.96875 12.050781 L 21.929688 12.113281 L 21.847656 12.242188 L 21.679688 12.496094 L 21.507812 12.75 C 21.453125 12.832031 21.394531 12.917969 21.335938 13 C 21.101562 13.332031 20.863281 13.660156 20.617188 13.980469 C 20.125 14.625 19.617188 15.253906 19.097656 15.875 Z M 19.039062 15.828125 "/></g><g clip-rule="nonzero" clip-path="url(#bf7621dc2d)"><path style=" stroke:none;fill-rule:nonzero;fill:#68a691;fill-opacity:1;" d="M 25.609375 15.019531 C 24.128906 15.210938 22.765625 15.890625 21.527344 16.6875 C 20.746094 17.289062 20 17.933594 19.304688 18.621094 C 19.96875 19.382812 20.570312 20.191406 21.253906 20.941406 C 22 21.714844 22.902344 22.359375 23.855469 22.828125 C 25.390625 23.582031 27.1875 23.785156 28.824219 23.261719 C 29.328125 23.109375 29.742188 22.785156 30.128906 22.441406 C 30.640625 21.988281 31.066406 21.449219 31.355469 20.828125 C 31.75 19.953125 31.753906 18.867188 31.5 17.949219 C 31.375 17.625 31.1875 17.332031 31 17.042969 C 30.65625 16.527344 30.335938 15.960938 29.839844 15.578125 C 28.597656 14.746094 27.011719 14.839844 25.609375 15.019531 Z M 8.53125 15.074219 C 8.652344 15.070312 8.796875 15.078125 8.910156 15.105469 C 8.5 15.078125 8.105469 15.253906 7.789062 15.488281 C 7.425781 15.734375 7.078125 16.015625 6.851562 16.402344 C 6.207031 17.359375 5.757812 18.503906 5.8125 19.675781 C 5.921875 20.820312 6.351562 21.941406 7.265625 22.671875 C 8.558594 23.792969 10.636719 23.886719 12.207031 23.382812 C 12.902344 23.117188 13.5625 22.761719 14.191406 22.363281 C 14.625 22.042969 15.03125 21.6875 15.453125 21.351562 C 16.554688 20.46875 17.621094 19.535156 18.664062 18.585938 C 18.242188 18.058594 17.726562 17.625 17.195312 17.210938 C 16.875 16.953125 16.550781 16.6875 16.179688 16.507812 C 15.5 16.175781 14.734375 16.070312 13.992188 16.015625 C 13.832031 16.007812 13.65625 16.007812 13.5 15.996094 C 13.675781 15.976562 13.84375 15.953125 14.011719 15.941406 C 14.773438 15.890625 15.558594 15.914062 16.28125 16.191406 C 16.796875 16.382812 17.238281 16.71875 17.679688 17.039062 C 18.175781 17.386719 18.617188 17.800781 19.003906 18.269531 C 19.628906 17.632812 20.316406 17.070312 21 16.503906 C 21.429688 16.164062 21.90625 15.894531 22.390625 15.640625 C 23.113281 15.273438 23.851562 14.90625 24.644531 14.730469 C 26.238281 14.40625 28.066406 14.1875 29.582031 14.902344 C 30.375 15.226562 30.855469 15.953125 31.296875 16.652344 C 31.589844 17.109375 31.914062 17.570312 32.027344 18.109375 C 32.210938 19.171875 32.195312 20.351562 31.628906 21.296875 C 31.386719 21.785156 31.039062 22.203125 30.65625 22.578125 C 30.074219 23.15625 29.394531 23.636719 28.582031 23.816406 C 25.945312 24.484375 23.253906 23.441406 21.300781 21.648438 C 20.429688 20.828125 19.753906 19.832031 18.964844 18.945312 C 18.003906 19.824219 17.023438 20.679688 16.011719 21.5 C 15.164062 22.183594 14.355469 22.921875 13.351562 23.378906 C 11.910156 24.199219 10.140625 24.339844 8.558594 23.886719 C 7.75 23.683594 7.058594 23.183594 6.5 22.574219 C 6.03125 22.101562 5.761719 21.480469 5.566406 20.851562 C 5.148438 19.5625 5.355469 18.140625 6.054688 16.988281 C 6.335938 16.554688 6.628906 16.109375 7.019531 15.769531 C 7.46875 15.453125 7.96875 15.117188 8.53125 15.074219 Z M 8.53125 15.074219 "/></g><path style=" stroke:none;fill-rule:nonzero;fill:#68a691;fill-opacity:1;" d="M 12.253906 16.074219 C 12.503906 16.050781 12.773438 16.035156 13.015625 16.054688 C 12.90625 16.074219 12.789062 16.097656 12.683594 16.117188 C 12.113281 16.222656 11.574219 16.429688 11.078125 16.730469 C 10.269531 17.105469 9.578125 17.695312 8.960938 18.332031 C 8.808594 18.488281 8.648438 18.667969 8.496094 18.8125 C 8.984375 18.011719 9.570312 17.246094 10.371094 16.730469 C 10.964844 16.4375 11.578125 16.121094 12.253906 16.074219 Z M 12.253906 16.074219 "/><path style=" stroke:none;fill-rule:nonzero;fill:#68a691;fill-opacity:1;" d="M 14.265625 16.683594 C 15.257812 16.648438 16.273438 16.746094 17.230469 16.992188 C 16.390625 16.929688 15.523438 16.941406 14.703125 17.019531 C 13.046875 17.148438 11.382812 17.453125 9.90625 18.230469 C 9.515625 18.40625 9.078125 18.457031 8.714844 18.679688 C 8.953125 18.453125 9.3125 18.328125 9.601562 18.175781 C 9.90625 18.019531 10.171875 17.808594 10.464844 17.640625 C 11.625 17.007812 12.945312 16.6875 14.265625 16.683594 Z M 14.265625 16.683594 "/><g clip-rule="nonzero" clip-path="url(#d61722dc06)"><path style=" stroke:none;fill-rule:nonzero;fill:#68a691;fill-opacity:1;" d="M 14.394531 13.613281 C 15.667969 14.222656 17.007812 14.953125 17.652344 16.269531 C 17.949219 16.707031 18.15625 17.1875 18.355469 17.667969 C 18.375 17.703125 18.40625 17.746094 18.425781 17.769531 C 18.398438 17.757812 18.371094 17.726562 18.351562 17.707031 C 18.167969 17.480469 18.035156 17.203125 17.863281 16.972656 C 17.523438 16.558594 17.230469 16.113281 16.890625 15.707031 C 16.152344 14.898438 15.242188 14.277344 14.394531 13.613281 Z M 14.394531 13.613281 "/><path style=" stroke:none;fill-rule:nonzero;fill:#68a691;fill-opacity:1;" d="M 14.710938 13.71875 C 17.023438 13.875 18.632812 15.15625 18.28125 17.613281 C 18.210938 16.789062 18.019531 15.851562 17.417969 15.222656 C 16.726562 14.40625 15.699219 14.015625 14.710938 13.71875 Z M 14.710938 13.71875 "/></g><path style=" stroke:none;fill-rule:nonzero;fill:#68a691;fill-opacity:1;" d="M 24.480469 20.609375 C 25.808594 20.609375 26.773438 21.660156 27.953125 22.105469 C 28.960938 22.480469 30.246094 22.375 31.058594 21.636719 C 30.351562 22.609375 28.789062 22.882812 27.671875 22.4375 C 26.722656 22.09375 26.03125 21.285156 25.097656 20.914062 C 24.679688 20.734375 24.222656 20.699219 23.789062 20.664062 C 24.015625 20.640625 24.246094 20.617188 24.480469 20.609375 Z M 24.480469 20.609375 "/><path style=" stroke:none;fill-rule:nonzero;fill:#68a691;fill-opacity:1;" d="M 26.390625 20.101562 C 26.984375 20.132812 27.566406 20.324219 28.074219 20.632812 C 28.753906 21.011719 30.191406 22.25 30.9375 21.703125 C 30.546875 22.167969 29.644531 21.882812 29.136719 21.644531 C 28.457031 21.332031 27.808594 20.878906 27.109375 20.628906 C 26.101562 20.277344 24.980469 20.394531 23.957031 20.625 C 24.472656 20.324219 25.613281 20.058594 26.390625 20.101562 Z M 26.390625 20.101562 "/><g clip-rule="nonzero" clip-path="url(#128534b090)"><path style=" stroke:none;fill-rule:nonzero;fill:#68a691;fill-opacity:1;" d="M 31.367188 21.449219 C 31.621094 22.246094 31.097656 23.0625 30.554688 23.613281 C 30.246094 23.941406 29.925781 24.257812 29.535156 24.488281 C 28.828125 24.878906 28.058594 25.191406 27.496094 25.804688 C 27.367188 25.929688 27.234375 26.054688 27.101562 26.1875 C 27.222656 25.992188 27.375 25.796875 27.515625 25.605469 C 28.078125 24.773438 29.066406 24.445312 29.8125 23.824219 C 30.503906 23.21875 31.480469 22.46875 31.347656 21.457031 C 31.320312 21.488281 31.351562 21.433594 31.367188 21.449219 Z M 31.367188 21.449219 "/></g><path style=" stroke:none;fill-rule:nonzero;fill:#68a691;fill-opacity:1;" d="M 31.285156 21.769531 C 30.710938 23.566406 28.574219 24.101562 27.542969 25.542969 C 27.453125 25.667969 27.375 25.824219 27.304688 25.953125 C 27.359375 25.761719 27.421875 25.574219 27.507812 25.394531 C 27.886719 24.660156 28.558594 24.121094 29.210938 23.636719 C 29.972656 23.121094 30.820312 22.601562 31.285156 21.777344 C 31.277344 21.78125 31.28125 21.769531 31.285156 21.769531 Z M 31.285156 21.769531 "/><path style=" stroke:none;fill-rule:nonzero;fill:#68a691;fill-opacity:1;" d="M 25.878906 20.492188 C 26.597656 20.695312 27.328125 20.984375 27.980469 21.335938 C 28.8125 21.785156 29.777344 22.070312 30.722656 21.933594 C 30.734375 21.929688 30.75 21.925781 30.761719 21.921875 C 30.082031 22.207031 29.234375 22.152344 28.519531 21.941406 C 27.4375 21.597656 26.5 20.859375 25.402344 20.566406 C 25.152344 20.507812 24.902344 20.472656 24.644531 20.460938 C 25.042969 20.386719 25.484375 20.398438 25.878906 20.492188 Z M 25.878906 20.492188 "/><path style=" stroke:none;fill-rule:nonzero;fill:#68a691;fill-opacity:1;" d="M 13.519531 16.277344 C 14.617188 16.191406 15.796875 16.328125 16.746094 16.882812 C 15.261719 16.410156 13.652344 16.585938 12.152344 16.8125 C 11.628906 16.863281 11.148438 17.085938 10.679688 17.289062 C 11.484375 16.636719 12.511719 16.394531 13.519531 16.277344 Z M 13.519531 16.277344 "/><path style=" stroke:none;fill-rule:nonzero;fill:#68a691;fill-opacity:1;" d="M 16.765625 14.878906 C 17.578125 15.382812 18.132812 16.535156 18.175781 17.351562 C 17.824219 16.476562 17.390625 15.578125 16.765625 14.878906 Z M 16.765625 14.878906 "/></g></svg>