<svg width="235" height="184" viewBox="0 0 235 184" fill="none" xmlns="http://www.w3.org/2000/svg">
<path d="M66.2579 0L48.5905 51.2088C41.8523 56.7109 36.0899 57.6287 30.8605 62.8077C-30.8961 123.968 13.3101 171.807 48.5905 184H180.57C283.5 152 212.458 51.2088 180.57 51.2088L160.946 0L140.646 51.2088H87.5L66.2579 0Z" fill="#FFB25B"/>
<path d="M117.5 141L104.943 121.5L130.057 121.5L117.5 141Z" fill="black"/>
<path d="M68 18L80.1244 48.75H55.8756L68 18Z" fill="#FF8C62"/>
<path d="M161 18L173.124 48.75H148.876L161 18Z" fill="#FF8C62"/>
<path d="M95.5 75L90.7369 51L100.263 51L95.5 75Z" fill="#FF8C62"/>
<path d="M113.5 75L108.737 51L118.263 51L113.5 75Z" fill="#FF8C62"/>
<path d="M131.5 75L126.737 51L136.263 51L131.5 75Z" fill="#FF8C62"/>
</svg>
