<svg width="162" height="117" viewBox="0 0 162 117" fill="none" xmlns="http://www.w3.org/2000/svg">
<path d="M79.9557 116.836C-3.0183 116.836 11.5929 75.7945 29.2702 55.2738L35.0509 35.0505H99.1753H124.987L130.172 55.2738C148.006 75.7945 162.93 116.836 79.9557 116.836Z" fill="#FFB25B"/>
<ellipse cx="31.3552" cy="48.42" rx="22.943" ry="23.1091" transform="rotate(-29.5467 31.3552 48.42)" fill="#FFB25B"/>
<ellipse cx="62.9777" cy="31.4178" rx="22.943" ry="23.1091" transform="rotate(-29.5467 62.9777 31.4178)" fill="#FFB25B"/>
<ellipse cx="102.041" cy="31.4178" rx="22.943" ry="23.1091" transform="rotate(-29.5467 102.041 31.4178)" fill="#FFB25B"/>
<ellipse cx="129.943" cy="46.5596" rx="22.943" ry="23.1091" transform="rotate(-29.5467 129.943 46.5596)" fill="#FFB25B"/>
<ellipse cx="129.336" cy="46.6518" rx="16.3943" ry="11.9543" transform="rotate(-43.298 129.336 46.6518)" fill="#FF8C62"/>
<ellipse cx="63.5967" cy="32.2848" rx="18.1663" ry="13.2464" transform="rotate(-102.492 63.5967 32.2848)" fill="#FF8C62"/>
<ellipse cx="100.629" cy="33.3744" rx="18.1663" ry="13.2464" transform="rotate(-69.1532 100.629 33.3744)" fill="#FF8C62"/>
<ellipse cx="31.729" cy="47.3071" rx="16.3943" ry="11.9543" transform="rotate(-135 31.729 47.3071)" fill="#FF8C62"/>
<ellipse cx="99.0909" cy="82.7589" rx="16.1571" ry="23.6909" transform="rotate(24.2383 99.0909 82.7589)" fill="#FF8C62"/>
<ellipse cx="80.0907" cy="78.2193" rx="16.1571" ry="23.6909" transform="rotate(-0.0178446 80.0907 78.2193)" fill="#FF8C62"/>
<ellipse cx="62.4514" cy="82.4033" rx="16.1571" ry="23.6909" transform="rotate(-20.7617 62.4514 82.4033)" fill="#FF8C62"/>
</svg>
