<svg width="61" height="61" viewBox="0 0 61 61" fill="none" xmlns="http://www.w3.org/2000/svg">
<path d="M30.5558 61C-8.82653 61 -1.89157 43 6.4987 34H10.3977H39.3853H50.4132H54.3901C62.8546 43 69.9381 61 30.5558 61Z" fill="#FFB25B"/>
<path d="M30.5558 44C-8.82653 44 -1.89157 26 6.4987 17H10.3977H39.3853H50.4132H54.3901C62.8546 26 69.9381 44 30.5558 44Z" fill="#FFB25B"/>
<path d="M30.4442 -4.57862e-06C69.8265 -1.13571e-06 62.8916 18 54.5013 27L50.6023 27L21.6147 27L10.5868 27L6.60992 27C-1.8546 18 -8.93807 -8.02153e-06 30.4442 -4.57862e-06Z" fill="#FFB25B"/>
</svg>
